<?xml version="1.0" encoding="UTF-8"?>
<svg width="512px" height="58px" viewBox="0 0 512 58" version="1.1" xmlns="http://www.w3.org/2000/svg" xmlns:xlink="http://www.w3.org/1999/xlink">
    <title>ANTHROPIC</title>
    <g id="Page-1" stroke="none" stroke-width="1" fill="none" fill-rule="evenodd">
        <g id="ANTHROPIC" fill="#1F1F1E">
            <polygon id="path60" points="125.300027 11.6727202 143.960383 11.6727202 143.960383 56.5359578 155.870557 56.5359578 155.870557 11.6722203 174.530912 11.6722203 174.530912 0.952813904 125.300027 0.952813904"></polygon>
            <polygon id="path62" points="104.258137 39.8612146 79.2455224 0.952813904 65.7466589 0.952813904 65.7466589 56.5359578 77.2604101 56.5359578 77.2604101 17.6275571 102.273025 56.5359578 115.771388 56.5359578 115.771388 0.952813904 104.258137 0.952813904"></polygon>
            <polygon id="path64" points="222.173607 23.106487 195.970225 23.106487 195.970225 0.952813904 184.059551 0.952813904 184.059551 56.5359578 195.970225 56.5359578 195.970225 33.8263933 222.173607 33.8263933 222.173607 56.5359578 234.08428 56.5359578 234.08428 0.952813904 222.173607 0.952813904"></polygon>
            <path d="M22.1536731,0.952813904 L0,56.5359578 L12.3870806,56.5359578 L16.9176958,44.8632376 L40.0951689,44.8632376 L44.6252841,56.5359578 L57.0123648,56.5359578 L34.8586917,0.952813904 L22.1536731,0.952813904 Z M20.9244132,34.5412537 L28.5059324,15.0070689 L36.0879516,34.5407538 L20.9244132,34.5412537 Z" id="path66" fill-rule="nonzero"></path>
            <path d="M332.784003,0 C316.744136,0 305.389354,11.9106737 305.389354,28.8238703 C305.389354,45.578098 316.744136,57.4887717 332.784003,57.4887717 C348.743886,57.4887717 360.019684,45.578098 360.019684,28.8238703 C360.019684,11.9106737 348.743886,0 332.784003,0 Z M332.784003,46.371943 C323.413833,46.371943 317.69695,39.7022457 317.69695,28.8238703 C317.69695,17.7865261 323.413833,11.1168287 332.784003,11.1168287 C342.074189,11.1168287 347.711588,17.7865261 347.711588,28.8233704 C347.711588,39.7022457 342.074189,46.371943 332.784003,46.371943 Z" id="path68" fill-rule="nonzero"></path>
            <path d="M499.294981,37.8761023 C497.230385,43.2750478 493.101191,46.371943 487.463292,46.371943 C478.093622,46.371943 472.376739,39.7022457 472.376739,28.8238703 C472.376739,17.7865261 478.093622,11.1168287 487.463292,11.1168287 C493.101191,11.1168287 497.230385,14.213224 499.294981,19.6126694 L511.920016,19.6126694 C508.82562,7.70249561 499.532935,0 487.463292,0 C471.423925,0 460.069143,11.9106737 460.069143,28.8238703 C460.069143,45.578098 471.423925,57.4887717 487.463292,57.4887717 C499.612419,57.4887717 508.900605,49.7072915 512,37.8761023 L499.294981,37.8761023 Z" id="path70"></path>
            <polygon id="path72" points="423.384308 0.952813904 445.537981 56.5359578 457.686608 56.5359578 435.532935 0.952813904"></polygon>
            <path d="M398.292209,0.952813904 L371.136012,0.952813904 L371.136012,56.5359578 L383.046686,56.5359578 L383.046686,36.367397 L398.292209,36.367397 C410.917743,36.367397 418.619738,29.6971998 418.619738,18.6598555 C418.619738,7.62251123 410.917743,0.952813904 398.292209,0.952813904 L398.292209,0.952813904 Z M397.736317,25.6479906 L383.046686,25.6479906 L383.046686,11.6717204 L397.736317,11.6717204 C403.612669,11.6717204 406.709065,14.054255 406.709065,18.6593556 C406.709065,23.2649561 403.612669,25.6469908 397.736317,25.6469908 L397.736317,25.6479906 Z" id="path74" fill-rule="nonzero"></path>
            <path d="M296.257637,17.8660105 C296.257637,7.3845577 288.555641,0.952813904 275.930107,0.952813904 L248.773911,0.952813904 L248.773911,56.5359578 L260.684585,56.5359578 L260.684585,34.7792072 L273.944495,34.7792072 L285.855669,56.5359578 L299.037094,56.5359578 L285.84767,33.1220309 C292.467877,30.5770279 296.257637,25.2180746 296.257637,17.8660105 Z M260.684585,11.6722203 L275.374216,11.6722203 C281.250068,11.6722203 284.346963,13.8163015 284.346963,17.8660105 C284.346963,21.9157196 281.250068,24.0598008 275.374216,24.0598008 L260.684585,24.0598008 L260.684585,11.6722203 Z" id="path76" fill-rule="nonzero"></path>
        </g>
    </g>
</svg>