<?xml version="1.0" encoding="UTF-8"?>
<svg width="512px" height="512px" viewBox="0 0 512 512" version="1.1" xmlns="http://www.w3.org/2000/svg" xmlns:xlink="http://www.w3.org/1999/xlink">
    <title>favicon</title>
    <defs>
        <path d="M146.141456,-7.25467311e-15 L365.858544,7.25467311e-15 C416.675112,-4.215174e-15 435.102427,5.29105984 453.680205,15.2265641 C472.257983,25.1620684 486.837932,39.7420171 496.773436,58.3197949 C506.70894,76.8975727 512,95.3248882 512,146.141456 L512,365.858544 C512,416.675112 506.70894,435.102427 496.773436,453.680205 C486.837932,472.257983 472.257983,486.837932 453.680205,496.773436 C435.102427,506.70894 416.675112,512 365.858544,512 L146.141456,512 C95.3248882,512 76.8975727,506.70894 58.3197949,496.773436 C39.7420171,486.837932 25.1620684,472.257983 15.2265641,453.680205 C5.29105984,435.102427 0,416.675112 0,365.858544 L7.25467311e-15,146.141456 C-4.215174e-15,95.3248882 5.29105984,76.8975727 15.2265641,58.3197949 C25.1620684,39.7420171 39.7420171,25.1620684 58.3197949,15.2265641 C76.8975727,5.29105984 95.3248882,4.215174e-15 146.141456,-7.25467311e-15 Z" id="path-1"></path>
    </defs>
    <g id="favicon" stroke="none" fill="none" fill-rule="evenodd">
        <g id="bg_black">
            <use fill="#854D4D" xlink:href="#path-1"></use>
            <use fill="#2C2C2A" xlink:href="#path-1"></use>
        </g>
        <path d="M390.755554,420.82 L128.511,420.82 L128.511,412.173019 C169.667221,413.133869 177.802138,398.72582 177.802138,370.383087 L177.802138,140.776824 C177.802138,114.357136 169.667221,98.5054584 128.511,99.4656364 L128.511,90.82 L275.904785,90.82 L275.904785,99.4663088 C239.533455,98.9862198 229.484046,110.034991 229.484046,141.257586 L229.484046,379.991591 C229.484046,394.402329 234.268936,399.205237 248.625617,399.205237 L315.624132,399.205237 C361.564574,399.205237 386.447612,388.636555 410.376083,330.036111 L418.511,332.91799 L390.755554,420.82 Z" id="Path" fill="#F7F7F4"></path>
    </g>
</svg>