<?xml version="1.0" encoding="UTF-8"?>
<svg width="512px" height="512px" viewBox="0 0 512 512" version="1.1" xmlns="http://www.w3.org/2000/svg" xmlns:xlink="http://www.w3.org/1999/xlink">
    <title>favicon</title>
    <g id="favicon" stroke="none" fill="none" fill-rule="evenodd">
        <path d="M146.141456,-7.25467311e-15 L365.858544,7.25467311e-15 C416.675112,-4.215174e-15 435.102427,5.29105984 453.680205,15.2265641 C472.257983,25.1620684 486.837932,39.7420171 496.773436,58.3197949 C506.70894,76.8975727 512,95.3248882 512,146.141456 L512,365.858544 C512,416.675112 506.70894,435.102427 496.773436,453.680205 C486.837932,472.257983 472.257983,486.837932 453.680205,496.773436 C435.102427,506.70894 416.675112,512 365.858544,512 L146.141456,512 C95.3248882,512 76.8975727,506.70894 58.3197949,496.773436 C39.7420171,486.837932 25.1620684,472.257983 15.2265641,453.680205 C5.29105984,435.102427 0,416.675112 0,365.858544 L7.25467311e-15,146.141456 C-4.215174e-15,95.3248882 5.29105984,76.8975727 15.2265641,58.3197949 C25.1620684,39.7420171 39.7420171,25.1620684 58.3197949,15.2265641 C76.8975727,5.29105984 95.3248882,4.215174e-15 146.141456,-7.25467311e-15 Z" id="bg" fill="#FFD849"></path>
        <g id="NXIcon" stroke-width="1" transform="translate(244.2421, 244.247)" fill="#364450">
            <path d="M164.513677,3.81351306 C164.513677,8.6281472 164.353268,13.4427813 163.872039,18.2574155 L132.271356,8.78863501 C132.431766,7.18375696 132.431766,5.4183911 132.431766,3.81351306 C132.431766,-67.1220967 75.0051446,-124.576731 4.10412076,-124.576731 C-66.7969031,-124.576731 -124.223524,-67.1220967 -124.223524,3.81351306 C-124.223524,74.7491228 -66.7969031,132.203757 4.10412076,132.203757 C5.70821632,132.203757 7.47272144,132.203757 9.076817,132.043269 L18.5409808,163.659367 C13.7286941,164.14083 8.91640744,164.301318 4.10412076,164.301318 C-84.4419543,164.301318 -156.305436,92.4027813 -156.305436,3.81351306 C-156.305436,-84.7757552 -84.4419543,-156.674292 4.10412076,-156.674292 C92.6501958,-156.674292 164.513677,-84.7757552 164.513677,3.81351306 Z M51.7834886,-42.3472712 C60.4647345,-28.4090275 63.5982091,-12.7259163 61.1839126,4.7020624 C58.769616,22.1300411 51.5351486,37.0855021 39.4805104,49.5684454 L10.4542104,79.626059 L-43.3847082,56.2022815 L-68.6731677,3.21363821 L-39.6468677,-26.8439753 C-27.5922294,-39.3269187 -12.8983581,-47.0789171 4.43474614,-50.0999706 C21.7678504,-53.1210241 37.5507646,-50.536791 51.7834886,-42.3472712 Z" id="target" fill-rule="nonzero" transform="translate(8.1946, 7.8257) rotate(-224) translate(-8.1946, -7.8257)"></path>
        </g>
    </g>
</svg>