<?xml version="1.0" encoding="iso-8859-1"?>
<!-- Generator: Adobe Illustrator 27.3.1, SVG Export Plug-In . SVG Version: 6.00 Build 0)  -->
<svg version="1.1" id="Layer_1" xmlns="http://www.w3.org/2000/svg" xmlns:xlink="http://www.w3.org/1999/xlink" x="0px" y="0px"
	 viewBox="0 0 1676.12 547.425" style="enable-background:new 0 0 1676.12 547.425;" xml:space="preserve">
<g>
	<g>
		<path style="fill:#F7F7F4;" d="M430.077,524.82H38.592V511.96c61.439,1.429,73.583-19.999,73.583-62.151V108.333
			c0-39.292-12.144-62.867-73.583-61.439V34.036h220.033v12.859c-54.296-0.714-69.298,15.718-69.298,62.153v355.051
			c0,21.432,7.143,28.575,28.575,28.575h100.017c68.581,0,105.727-15.718,141.448-102.87l12.144,4.286L430.077,524.82z"/>
	</g>
	<g>
		<path style="fill:#F7F7F4;" d="M717.233,408.374c-15.718,78.585-66.438,126.447-132.877,126.447
			c-71.438,0-140.02-55.721-140.02-170.739c0-107.155,59.294-178.596,147.878-178.596c74.295,0,125.018,54.294,125.018,133.591
			H492.914c-4.286,79.297,45.007,159.307,118.588,159.307c45.007,0,77.154-25.717,95.015-75.724L717.233,408.374z M643.65,296.931
			c-2.143-54.294-28.574-86.442-70.724-86.442s-73.581,35.007-78.583,86.442H643.65z"/>
	</g>
	<g>
		<path style="fill:#F7F7F4;" d="M1226.801,485.53c7.143,0,12.145-1.429,21.432-5.002l4.998,11.432L1137.5,533.392v-47.149
			c-32.148,33.576-62.867,48.578-100.013,48.578c-78.585,0-143.593-74.295-143.593-163.592
			c0-100.015,77.869-185.742,167.882-185.742c27.862,0,50.723,7.145,75.724,25.003V109.048c0-31.434-10-45.721-30.003-45.721
			c-3.573,0-6.43,0-9.287,0.714c-2.857,0.714-6.43,2.143-11.432,4.286l-5.714-12.144l102.874-43.578h12.145V425.52
			C1196.082,471.957,1203.224,485.53,1226.801,485.53z M1137.5,305.504c0-15.002-1.428-27.148-4.286-38.578
			c-8.571-35.005-44.292-61.437-79.297-61.437c-52.863,0-95.727,62.867-95.727,140.022c0,83.583,50.723,149.307,114.302,149.307
			c25.001,0,47.862-11.432,65.008-32.864V305.504z"/>
	</g>
	<g>
		<path style="fill:#F7F7F4;" d="M1550.392,480.529c-35.717,40.007-55.008,54.292-80.726,54.292
			c-27.146,0-49.294-22.144-45.721-60.722c-43.576,42.152-80.009,60.722-117.159,60.722c-41.435,0-73.583-35.717-73.583-80.726
			c0-22.86,6.43-40.003,20.003-57.149c13.573-17.859,38.578-31.432,75.012-48.578c30.003-14.289,61.439-27.862,95.727-39.292
			v-30.719c0-58.58-17.859-77.867-64.296-77.867c-38.574,0-55.008,22.146-55.008,52.149c0,3.571,0.716,12.859,0.716,17.146
			c0,17.144-11.432,29.289-27.862,29.289c-18.575,0-30.719-12.144-30.719-30.003c0-50.008,51.439-83.585,128.591-83.585
			c72.867,0,107.16,27.862,107.16,87.87v185.028c0,24.289,5.714,33.576,20.716,33.576c14.289,0,27.862-8.575,47.149-29.291V480.529z
			 M1423.945,328.365c-100.729,41.435-130.02,65.724-130.02,107.159c0,32.86,23.577,58.578,53.58,58.578
			c24.289,0,47.866-10.716,76.44-35.717V328.365z"/>
	</g>
	<g>
		<path style="fill:#F7F7F4;" d="M1637.527,494.818c0,22.144-17.142,40.003-39.29,40.003c-22.144,0-40.003-17.859-40.003-40.003
			c0-22.148,17.859-39.294,40.003-39.294C1620.385,455.523,1637.527,472.67,1637.527,494.818z"/>
	</g>
	<g>
		<path style="fill:#F7F7F4;" d="M842.047,445.524V185.486H829.19l-99.303,37.864l4.288,12.859c2.857-1.429,5-2.859,7.143-2.859
			c2.145-0.714,5.002-0.714,7.859-0.714c23.575,0,34.291,18.575,34.291,45.721v167.168c0,50.723-12.859,66.436-52.865,66.436h-0.714
			v12.861h160.737V511.96C852.763,510.532,842.047,495.53,842.047,445.524z"/>
	</g>
	<g>
		<path style="fill:#F7F7F4;" d="M801.322,137.363c-12.09,0-22.118-3.988-30.096-11.966c-7.976-7.976-11.964-17.765-11.964-29.37
			c0-11.602,3.988-21.391,11.964-29.37c7.978-7.976,18.006-11.964,30.096-11.964c11.602,0,21.391,3.988,29.37,11.964
			c7.976,7.978,11.966,17.768,11.966,29.37c0,11.604-3.99,21.393-11.966,29.37C822.713,133.375,812.924,137.363,801.322,137.363z"/>
	</g>
</g>
</svg>
